<svg xmlns="http://www.w3.org/2000/svg" viewBox="0 0 1024 512" role="img" aria-label="Argi logo">
  <g transform="translate(0,768) scale(0.1,-0.1)" fill="#ffc012" stroke="none">
    <path d="M8600 7266 c-111 -24 -202 -95 -248 -194 -23 -49 -27 -70 -27 -152 0
    -82 4 -103 27 -152 33 -70 105 -145 173 -178 43 -22 64 -25 150 -25 89 0 106
    3 150 27 69 36 130 101 168 178 28 56 32 75 32 145 0 71 -4 89 -33 147 -75
    153 -237 237 -392 204z"/>
    <path d="M2300 6233 c-459 -72 -807 -419 -915 -913 -26 -119 -31 -344 -10
    -475 72 -462 377 -833 780 -950 346 -100 700 -24 918 198 l67 69 0 -87 c0 -83
    1 -88 30 -116 l29 -30 236 3 235 3 27 28 28 28 0 1027 c0 565 -3 1047 -6 1071
    -5 31 -15 52 -33 68 -27 23 -31 23 -256 23 l-230 0 -30 -27 c-29 -27 -31 -32
    -33 -109 l-2 -81 -55 48 c-182 156 -388 230 -635 228 -66 -1 -131 -3 -145 -6z
    m385 -538 c328 -69 522 -394 462 -775 -18 -114 -44 -187 -97 -268 -66 -102
    -197 -190 -336 -226 -135 -35 -340 -12 -457 51 -156 85 -274 267 -306 470 -15
    101 -14 164 8 268 39 190 152 343 314 425 134 67 269 85 412 55z"/>
    <path d="M6430 6221 c-646 -141 -1028 -867 -810 -1544 62 -193 163 -349 331
    -511 161 -156 303 -235 517 -288 128 -32 345 -32 457 0 162 47 291 128 389
    249 28 34 53 62 56 62 10 2 -8 -200 -25 -277 -65 -299 -284 -466 -610 -465
    -193 1 -344 58 -476 181 -86 80 -106 92 -151 92 -30 0 -243 -81 -326 -124 -36
    -18 -72 -81 -72 -123 1 -129 249 -368 485 -466 189 -78 315 -102 555 -102 201
    0 312 17 464 72 327 118 581 380 694 718 59 174 56 113 59 1318 l4 1108 -30
    30 -30 30 -247 -3 -246 -3 -24 -28 c-21 -25 -24 -38 -24 -108 0 -43 -3 -79 -6
    -79 -3 0 -28 20 -55 44 -104 93 -246 170 -387 208 -112 30 -373 35 -492 9z
    m495 -526 c217 -45 389 -205 457 -425 19 -62 23 -97 23 -205 0 -213 -47 -339
    -169 -460 -118 -115 -271 -175 -451 -175 -173 0 -316 55 -435 166 -259 244
    -262 673 -6 929 151 151 368 215 581 170z"/>
    <path d="M5120 6194 c-135 -35 -287 -141 -365 -254 -15 -22 -30 -40 -34 -40
    -3 0 -6 50 -6 111 l0 111 -33 29 -32 29 -230 0 c-228 0 -229 0 -257 -24 l-28
    -24 0 -1071 0 -1071 28 -27 27 -28 229 -3 230 -3 33 30 33 29 6 599 c4 423 9
    616 18 658 32 153 134 286 257 334 52 20 83 24 249 30 221 7 235 12 254 85 14
    55 15 440 1 465 -5 10 -28 26 -50 35 -52 21 -251 21 -330 0z"/>
    <path d="M8423 6162 c-12 -9 -27 -30 -32 -45 -16 -43 -14 -2060 2 -2107 7 -19
    27 -44 46 -57 33 -22 42 -23 233 -23 158 0 205 3 228 15 63 33 60 -28 60 1115
    0 1120 2 1082 -49 1110 -12 6 -108 10 -243 10 -196 0 -226 -3 -245 -18z"/>
  </g>
</svg>
